# xmcd
#
# Track frame offsets:
#	150
#	14370
#	33225
#	47492
#	63825
#	75567
#	90315
#	105635
#	120535
#	135210
#	150382
#	168232
#	182260
#	196562
#
# Disc length: 2834 seconds
#
# Revision: 0
# Processed by: cddbd v1.5.2PL0 Copyright (c) Steve Scherf et al.
# Submitted via: EZCDAudioConverter 2.2.2.1
#
DISCID=8c0b100e
DTITLE=Lucille Starr - Chansons D'Amour
DYEAR=1900
DGENRE=Canadian Country
TTITLE0=C'Est Ma Premiere Fois De Tant Aimer
TTITLE1=Je Desirais Que C'Etait Toi
TTITLE2=Chanson D'Amour
TTITLE3=Revoiyant
TTITLE4=En Passant Par La Lorraine
TTITLE5=Quand Le Soleil Dit Bonjour Aux Montagnes
TTITLE6=Rock Steady Love
TTITLE7=Comme Nous Etions
TTITLE8=Toi Sans Coeur
TTITLE9=C'Est Ma Premiere Fois De Trouver Une Deuxieme Fois
TTITLE10=Money Don't Make A Man A Lover
TTITLE11=Je Reviendrais
TTITLE12=If You Were Mine
TTITLE13=The Sun Shines Again
EXTD=
EXTT0=
EXTT1=
EXTT2=
EXTT3=
EXTT4=
EXTT5=
EXTT6=
EXTT7=
EXTT8=
EXTT9=
EXTT10=
EXTT11=
EXTT12=
EXTT13=
PLAYORDER=
